<?xml version="1.0" standalone="no"?>
<!DOCTYPE svg PUBLIC "-//W3C//DTD SVG 20010904//EN"
 "http://www.w3.org/TR/2001/REC-SVG-20010904/DTD/svg10.dtd">
<svg version="1.0" xmlns="http://www.w3.org/2000/svg"
 width="163.000000pt" height="163.000000pt" viewBox="0 0 163.000000 163.000000"
 preserveAspectRatio="xMidYMid meet">
<metadata>
Created by potrace 1.14, written by Peter Selinger 2001-2017
</metadata>
<g transform="translate(0.000000,163.000000) scale(0.100000,-0.100000)"
fill="#000000" stroke="none">
<path d="M994 1569 c-3 -6 -12 -8 -19 -5 -14 5 -100 -73 -91 -82 3 -2 -2 -11
-11 -20 -12 -12 -41 -16 -127 -18 -61 -1 -118 2 -127 7 -9 4 -19 5 -23 2 -3
-4 -23 -8 -44 -9 -93 -7 -138 -12 -152 -18 -8 -3 -24 -7 -35 -9 -26 -5 -57
-18 -72 -31 -7 -6 -18 -16 -25 -22 -54 -48 -71 -96 -61 -179 4 -33 7 -101 8
-152 0 -90 0 -92 -30 -114 -106 -82 -167 -202 -166 -330 0 -57 23 -148 52
-209 36 -76 135 -200 159 -200 6 0 9 -4 6 -8 -3 -5 7 -15 22 -23 14 -8 34 -22
44 -31 10 -10 25 -18 33 -18 8 0 15 -4 15 -8 0 -10 122 -54 159 -58 14 -1 26
-3 26 -4 0 -9 51 -7 57 2 5 9 8 10 8 1 0 -7 9 -10 23 -7 12 3 35 7 50 10 15 3
43 12 62 20 19 8 36 13 37 12 4 -3 67 52 87 76 9 10 31 34 48 55 18 20 33 40
33 45 0 5 11 19 25 32 14 13 25 28 25 33 0 6 8 15 18 20 9 6 14 11 9 11 -4 0
5 14 20 31 16 17 27 35 26 40 -2 4 6 11 17 14 11 4 18 11 15 16 -4 5 -1 9 5 9
6 0 8 4 5 10 -3 5 -1 10 5 10 6 0 8 4 5 10 -3 5 -3 10 2 10 10 0 47 62 44 74
-1 5 23 6 54 3 40 -4 53 -2 48 6 -4 7 0 7 9 -1 18 -15 128 -13 128 2 0 5 3 6
6 3 8 -8 68 67 89 110 9 18 18 60 21 94 2 34 7 65 9 70 3 4 1 11 -5 14 -7 4
-7 11 -2 18 7 11 11 60 17 237 0 25 -4 51 -9 59 -8 11 -8 13 1 7 10 -5 11 6 8
46 -5 56 -29 88 -67 88 -10 0 -16 5 -13 10 3 6 -3 10 -14 10 -12 0 -21 4 -21
9 0 5 -9 13 -21 16 -18 6 -38 38 -45 74 -19 98 -61 123 -209 127 -55 2 -110 6
-122 8 -13 3 -25 0 -29 -5z"/>
</g>
</svg>
